<svg width="24" height="24" viewBox="0 0 24 24" fill="none" xmlns="http://www.w3.org/2000/svg">
<g id="add">
<path id="Vector" d="M13.1264 13.1253L19.4241 13.1253C19.7227 13.1255 20.0092 13.0072 20.2206 12.7962C20.4319 12.5852 20.5508 12.2989 20.551 12.0003C20.5513 11.7017 20.4329 11.4152 20.222 11.2038C20.011 10.9925 19.7247 10.8736 19.4261 10.8734L13.1284 10.8734L13.1284 4.57568C13.1284 4.2768 13.0097 3.99015 12.7983 3.77881C12.587 3.56746 12.3004 3.44873 12.0015 3.44873C11.7026 3.44873 11.4159 3.56746 11.2046 3.77881C10.9932 3.99015 10.8745 4.2768 10.8745 4.57568L10.8745 10.8734L4.57684 10.8734C4.27796 10.8734 3.99131 10.9921 3.77997 11.2034C3.56862 11.4148 3.44989 11.7014 3.44989 12.0003C3.44989 12.2992 3.56862 12.5858 3.77997 12.7972C3.99131 13.0085 4.27796 13.1273 4.57684 13.1273L10.8745 13.1273V19.4249C10.8745 19.7238 10.9932 20.0105 11.2046 20.2218C11.4159 20.4331 11.7026 20.5519 12.0015 20.5519C12.3004 20.5519 12.587 20.4331 12.7983 20.2218C13.0097 20.0105 13.1284 19.7238 13.1284 19.4249L13.1264 13.1253Z" fill="#545354"/>
</g>
</svg>
