<svg xmlns="http://www.w3.org/2000/svg" width="24" height="24" viewBox="0 0 24 24" fill="none">
    <path fill-rule="evenodd" clip-rule="evenodd" d="M8.33654 3.75C8.6711 3.75 8.94231 4.02027 8.94231 4.35366V7.57317C8.94231 7.90656 8.6711 8.17683 8.33654 8.17683C8.00198 8.17683 7.73077 7.90656 7.73077 7.57317V6.56707H6.72115C6.45339 6.56707 6.19659 6.67307 6.00725 6.86175C5.81791 7.05043 5.71154 7.30634 5.71154 7.57317V10.189H19.0385V7.57317C19.0385 7.30634 18.9321 7.05043 18.7428 6.86175C18.5534 6.67307 18.2966 6.56707 18.0288 6.56707H17.625C17.2904 6.56707 17.0192 6.29681 17.0192 5.96341C17.0192 5.63002 17.2904 5.35976 17.625 5.35976H18.0288C18.6179 5.35976 19.1829 5.59295 19.5994 6.00805C20.016 6.42315 20.25 6.98614 20.25 7.57317V18.0366C20.25 18.6236 20.016 19.1866 19.5994 19.6017C19.1829 20.0168 18.6179 20.25 18.0288 20.25H6.72115C6.13207 20.25 5.56711 20.0168 5.15056 19.6017C4.73401 19.1866 4.5 18.6236 4.5 18.0366V7.57317C4.5 6.98614 4.73401 6.42315 5.15056 6.00805C5.56711 5.59295 6.13207 5.35976 6.72115 5.35976H7.73077V4.35366C7.73077 4.02027 8.00198 3.75 8.33654 3.75ZM19.0385 11.3963H5.71154V18.0366C5.71154 18.3034 5.81791 18.5593 6.00725 18.748C6.19659 18.9367 6.45339 19.0427 6.72115 19.0427H18.0288C18.2966 19.0427 18.5534 18.9367 18.7428 18.748C18.9321 18.5593 19.0385 18.3034 19.0385 18.0366V11.3963ZM14.7981 3.75C15.1326 3.75 15.4038 4.02027 15.4038 4.35366V7.57317C15.4038 7.90656 15.1326 8.17683 14.7981 8.17683C14.4635 8.17683 14.1923 7.90656 14.1923 7.57317V6.56707H11.1635C10.8289 6.56707 10.5577 6.29681 10.5577 5.96341C10.5577 5.63002 10.8289 5.35976 11.1635 5.35976H14.1923V4.35366C14.1923 4.02027 14.4635 3.75 14.7981 3.75Z" fill="#005469"/>
</svg>
