<svg xmlns="http://www.w3.org/2000/svg" width="24" height="24" viewBox="0 0 24 24" fill="none">
    <path fill-rule="evenodd" clip-rule="evenodd" d="M5.08898 5.46099C5.38662 5.37198 5.70006 5.5411 5.78907 5.83874L6.1817 7.15169H18.7501C18.9279 7.15169 19.0951 7.23568 19.2013 7.37822C19.3074 7.52076 19.34 7.70508 19.2891 7.87535L17.2384 14.7325C17.1672 14.9707 16.9481 15.1338 16.6995 15.1338H7.81344C7.56485 15.1338 7.34574 14.9707 7.27452 14.7325L4.71123 6.16107C4.62222 5.86343 4.79135 5.54999 5.08898 5.46099ZM6.51814 8.27669L8.23234 14.0088H16.2806L17.9948 8.27669H6.51814ZM9.18053 16.4088C9.49119 16.4088 9.74303 16.6607 9.74303 16.9713C9.74303 17.0955 9.79222 17.2143 9.87921 17.3015C9.96615 17.3887 10.0837 17.4374 10.2058 17.4374C10.328 17.4374 10.4455 17.3887 10.5325 17.3015C10.6195 17.2143 10.6687 17.0955 10.6687 16.9713C10.6687 16.6607 10.9205 16.4088 11.2312 16.4088C11.5418 16.4088 11.7937 16.6607 11.7937 16.9713C11.7937 17.3927 11.6268 17.7972 11.3292 18.0958C11.0316 18.3943 10.6275 18.5624 10.2058 18.5624C9.78415 18.5624 9.38009 18.3943 9.08246 18.0958C8.78488 17.7972 8.61803 17.3927 8.61803 16.9713C8.61803 16.6607 8.86987 16.4088 9.18053 16.4088ZM13.2818 16.4088C13.5925 16.4088 13.8443 16.6607 13.8443 16.9713C13.8443 17.0955 13.8935 17.2143 13.9805 17.3015C14.0674 17.3887 14.1849 17.4374 14.3071 17.4374C14.4293 17.4374 14.5468 17.3887 14.6337 17.3015C14.7207 17.2143 14.7699 17.0955 14.7699 16.9713C14.7699 16.6607 15.0218 16.4088 15.3324 16.4088C15.6431 16.4088 15.8949 16.6607 15.8949 16.9713C15.8949 17.3927 15.7281 17.7972 15.4305 18.0958C15.1329 18.3943 14.7288 18.5624 14.3071 18.5624C13.8854 18.5624 13.4814 18.3943 13.1837 18.0958C12.8861 17.7972 12.7193 17.3927 12.7193 16.9713C12.7193 16.6607 12.9711 16.4088 13.2818 16.4088Z" fill="#1820B9"/>
</svg>
