<svg width="24" height="24" viewBox="0 0 24 24" fill="none" xmlns="http://www.w3.org/2000/svg">
<path fill-rule="evenodd" clip-rule="evenodd" d="M16.3724 13.259C16.6445 13.259 16.8651 13.4796 16.8651 13.7517V15.8868H19.0001C19.2722 15.8868 19.4928 16.1074 19.4928 16.3795C19.4928 16.6516 19.2722 16.8722 19.0001 16.8722H16.8651V19.0072C16.8651 19.2793 16.6445 19.4999 16.3724 19.4999C16.1003 19.4999 15.8797 19.2793 15.8797 19.0072V16.8722H13.7447C13.4725 16.8722 13.252 16.6516 13.252 16.3795C13.252 16.1074 13.4725 15.8868 13.7447 15.8868H15.8797V13.7517C15.8797 13.4796 16.1003 13.259 16.3724 13.259Z" fill="#1820B9"/>
<path fill-rule="evenodd" clip-rule="evenodd" d="M5.51825 5.4854C5.50954 5.4854 5.50118 5.48886 5.49502 5.49502C5.48886 5.50118 5.4854 5.50954 5.4854 5.51825V9.72263C5.4854 9.73134 5.48886 9.73969 5.49502 9.74585C5.50118 9.75201 5.50954 9.75547 5.51825 9.75547H9.72263C9.73134 9.75547 9.7397 9.75201 9.74585 9.74585C9.75201 9.7397 9.75547 9.73134 9.75547 9.72263V5.51825C9.75547 5.50954 9.75201 5.50118 9.74585 5.49502C9.73969 5.48886 9.73134 5.4854 9.72263 5.4854H5.51825ZM4.79824 4.79824C4.9892 4.60728 5.24819 4.5 5.51825 4.5H9.72263C9.99268 4.5 10.2517 4.60728 10.4426 4.79824C10.6336 4.9892 10.7409 5.24819 10.7409 5.51825V9.72263C10.7409 9.99268 10.6336 10.2517 10.4426 10.4426C10.2517 10.6336 9.99268 10.7409 9.72263 10.7409H5.51825C5.24819 10.7409 4.9892 10.6336 4.79824 10.4426C4.60728 10.2517 4.5 9.99268 4.5 9.72263V5.51825C4.5 5.24819 4.60728 4.9892 4.79824 4.79824ZM14.2774 5.4854C14.2687 5.4854 14.2603 5.48886 14.2541 5.49502C14.248 5.50118 14.2445 5.50954 14.2445 5.51825V9.72263C14.2445 9.73134 14.248 9.7397 14.2541 9.74585C14.2603 9.75201 14.2687 9.75547 14.2774 9.75547H18.4818C18.4905 9.75547 18.4988 9.75201 18.505 9.74585C18.5111 9.7397 18.5146 9.73134 18.5146 9.72263V5.51825C18.5146 5.50954 18.5111 5.50118 18.505 5.49502C18.4988 5.48886 18.4905 5.4854 18.4818 5.4854H14.2774ZM13.5574 4.79824C13.7483 4.60728 14.0073 4.5 14.2774 4.5H18.4818C18.7518 4.5 19.0108 4.60728 19.2018 4.79824C19.3927 4.9892 19.5 5.24819 19.5 5.51825V9.72263C19.5 9.99268 19.3927 10.2517 19.2018 10.4426C19.0108 10.6336 18.7518 10.7409 18.4818 10.7409H14.2774C14.0073 10.7409 13.7483 10.6336 13.5574 10.4426C13.3664 10.2517 13.2591 9.99268 13.2591 9.72263V5.51825C13.2591 5.24819 13.3664 4.9892 13.5574 4.79824ZM5.51825 14.2445C5.50954 14.2445 5.50118 14.248 5.49502 14.2541C5.48886 14.2603 5.4854 14.2687 5.4854 14.2774V18.4818C5.4854 18.4905 5.48886 18.4988 5.49502 18.505C5.50118 18.5111 5.50954 18.5146 5.51825 18.5146H9.72263C9.73134 18.5146 9.7397 18.5111 9.74585 18.505C9.75201 18.4988 9.75547 18.4905 9.75547 18.4818V14.2774C9.75547 14.2687 9.75201 14.2603 9.74585 14.2541C9.7397 14.248 9.73134 14.2445 9.72263 14.2445H5.51825ZM4.79824 13.5574C4.9892 13.3664 5.24819 13.2591 5.51825 13.2591H9.72263C9.99268 13.2591 10.2517 13.3664 10.4426 13.5574C10.6336 13.7483 10.7409 14.0073 10.7409 14.2774V18.4818C10.7409 18.7518 10.6336 19.0108 10.4426 19.2018C10.2517 19.3927 9.99268 19.5 9.72263 19.5H5.51825C5.24819 19.5 4.9892 19.3927 4.79824 19.2018C4.60728 19.0108 4.5 18.7518 4.5 18.4818V14.2774C4.5 14.0073 4.60728 13.7483 4.79824 13.5574Z" fill="#1820B9"/>
</svg>
