<svg width="24" height="24" viewBox="0 0 24 24" fill="none" xmlns="http://www.w3.org/2000/svg">
<path fill-rule="evenodd" clip-rule="evenodd" d="M2 0C0.895431 0 0 0.89543 0 2V22C0 23.1046 0.89543 24 2 24H22C23.1046 24 24 23.1046 24 22V2C24 0.895431 23.1046 0 22 0H2ZM18.6614 6.00085C18.6679 6.00066 18.6743 6.00048 18.6807 6.00029C19.0993 5.98786 19.7732 6.38339 19.9364 6.781C20.0997 7.17861 19.9309 7.69263 19.6309 7.99388L10.1708 17.7004C9.77402 18.1093 8.86801 18.095 8.47124 17.686L4.38482 13.5667C4.11941 13.3039 3.93118 12.8474 4.024 12.4802C4.11682 12.1131 4.78779 11.5267 5.14383 11.431C5.49987 11.3353 5.96617 11.4757 6.221 11.7493L9.29386 14.9304L17.6169 6.45974C18.0329 6.0191 18.3988 6.00848 18.6614 6.00085Z" fill="#545354"/>
</svg>
