<svg width="24" height="24" viewBox="0 0 24 24" fill="none" xmlns="http://www.w3.org/2000/svg">
<g id="close">
<path id="Vector" d="M13.5922 12L18.0453 7.54687C18.2566 7.3359 18.3755 7.04962 18.3758 6.75099C18.376 6.45237 18.2577 6.16587 18.0467 5.95453C17.8357 5.74319 17.5494 5.62431 17.2508 5.62404C16.9522 5.62378 16.6657 5.74215 16.4543 5.95312L12.0012 10.4062L7.54809 5.95312C7.33675 5.74178 7.05011 5.62305 6.75122 5.62305C6.45233 5.62305 6.16569 5.74178 5.95434 5.95312C5.743 6.16447 5.62427 6.45111 5.62427 6.75C5.62427 7.04888 5.743 7.33553 5.95434 7.54687L10.4075 12L5.95434 16.4531C5.743 16.6645 5.62427 16.9511 5.62427 17.25C5.62427 17.5489 5.743 17.8355 5.95434 18.0469C6.16569 18.2582 6.45233 18.3769 6.75122 18.3769C7.05011 18.3769 7.33675 18.2582 7.54809 18.0469L12.0012 13.5937L16.4543 18.0469C16.6657 18.2582 16.9523 18.3769 17.2512 18.3769C17.5501 18.3769 17.8367 18.2582 18.0481 18.0469C18.2594 17.8355 18.3782 17.5489 18.3782 17.25C18.3782 16.9511 18.2594 16.6645 18.0481 16.4531L13.5922 12Z" fill="#0B090A"/>
</g>
</svg>
