<svg width="40" height="40" viewBox="0 0 40 40" fill="none" xmlns="http://www.w3.org/2000/svg">
<g id="cloud-upload">
<path id="Vector" d="M35.3042 19.5864C34.3198 18.845 33.1105 18.3007 31.8336 18.0071C31.6239 17.9592 31.432 17.8517 31.2803 17.6972C31.1285 17.5426 31.0231 17.3474 30.9765 17.1343C30.428 14.6521 29.2475 12.5236 27.5122 10.9107C25.4949 9.03286 22.8273 8 20 8C17.5145 8 15.2188 8.79143 13.3646 10.2893C12.108 11.306 11.0965 12.6009 10.4073 14.075C10.3325 14.2363 10.2217 14.3776 10.0836 14.4876C9.94554 14.5976 9.78404 14.6733 9.61203 14.7086C7.73117 15.0943 6.03312 15.9136 4.73656 17.0743C2.94641 18.6814 2 20.8179 2 23.2571C2 25.7229 3.01883 27.9714 4.86805 29.5971C6.6343 31.1464 9.01227 32 11.5625 32H18.875V21.045L16.2952 23.6657C16.1875 23.7751 16.0591 23.8612 15.9177 23.9186C15.7763 23.9761 15.6248 24.0038 15.4726 24.0001C15.3203 23.9963 15.1704 23.9612 15.0319 23.8969C14.8934 23.8325 14.7692 23.7403 14.6668 23.6257C14.259 23.1707 14.2984 22.4614 14.7266 22.0264L19.2048 17.4779C19.4157 17.2637 19.7018 17.1434 20 17.1434C20.2982 17.1434 20.5843 17.2637 20.7952 17.4779L25.2734 22.025C25.715 22.4743 25.7403 23.2107 25.3009 23.6614C25.1966 23.7684 25.0726 23.8534 24.9359 23.9115C24.7992 23.9697 24.6526 23.9998 24.5044 24.0002C24.3562 24.0006 24.2094 23.9712 24.0724 23.9138C23.9355 23.8564 23.811 23.7721 23.7062 23.6657L21.125 21.045V32H29.8438C32.0473 32 34.0562 31.3714 35.5004 30.2307C37.1359 28.9379 38 27.0879 38 24.8857C38 22.7471 37.0677 20.9136 35.3042 19.5864Z" fill="#545354"/>
</g>
</svg>
