<svg width="32" height="32" viewBox="0 0 32 32" fill="none" xmlns="http://www.w3.org/2000/svg">
<path d="M9.33325 12L15.9999 16.6667L22.6666 12" stroke="#1820B9" stroke-width="2" stroke-linecap="round" stroke-linejoin="round"/>
<path d="M2.66663 22.6667V9.33333C2.66663 8.62609 2.94758 7.94781 3.44767 7.44771C3.94777 6.94762 4.62605 6.66666 5.33329 6.66666H26.6666C27.3739 6.66666 28.0521 6.94762 28.5522 7.44771C29.0523 7.94781 29.3333 8.62609 29.3333 9.33333V22.6667C29.3333 23.3739 29.0523 24.0522 28.5522 24.5523C28.0521 25.0524 27.3739 25.3333 26.6666 25.3333H5.33329C4.62605 25.3333 3.94777 25.0524 3.44767 24.5523C2.94758 24.0522 2.66663 23.3739 2.66663 22.6667Z" stroke="#1820B9" stroke-width="2"/>
</svg>
