<svg width="24" height="24" viewBox="0 0 24 24" fill="none" xmlns="http://www.w3.org/2000/svg">
<path fill-rule="evenodd" clip-rule="evenodd" d="M11.9962 4.46413C12.0371 4.87632 11.7361 5.2436 11.3239 5.28446C7.91411 5.62254 5.24998 8.50116 5.24998 12.0005C5.24998 15.7285 8.27191 18.7505 11.9999 18.7505C15.2646 18.7505 17.9891 16.4317 18.6148 13.3512C18.6973 12.9453 19.0932 12.6831 19.4991 12.7655C19.905 12.848 20.1672 13.2439 20.0848 13.6498C19.32 17.4152 15.9922 20.2504 11.9999 20.2504C7.44349 20.2504 3.75 16.5569 3.75 12.0005C3.75 7.72252 7.0063 4.20521 11.1759 3.7918C11.5881 3.75093 11.9554 4.05195 11.9962 4.46413Z" fill="#005469"/>
<path fill-rule="evenodd" clip-rule="evenodd" d="M11.4871 3.78869C11.8801 3.91967 12.0924 4.34441 11.9614 4.73736C11.7355 5.41525 12.1768 6.00018 12.8137 6.00018C13.0835 6.00018 13.3324 6.14507 13.4657 6.37962C13.599 6.61417 13.5961 6.90223 13.458 7.134C12.783 8.26709 12.8431 9.25278 13.281 9.88606C13.7228 10.5249 14.7182 11.0495 16.4253 10.8788C16.6361 10.8578 16.846 10.9268 17.0031 11.069C17.1602 11.2112 17.2499 11.4132 17.2499 11.6251C17.2499 12.2574 17.538 12.568 17.8778 12.7331C18.2777 12.9275 18.75 12.914 18.9933 12.8154C19.3772 12.66 19.8145 12.8451 19.97 13.229C20.1255 13.613 19.9403 14.0502 19.5564 14.2057C18.8997 14.4717 17.9845 14.4529 17.222 14.0822C16.5873 13.7737 16.0559 13.2186 15.846 12.4105C14.1456 12.4198 12.7978 11.8245 12.0473 10.7392C11.3577 9.74194 11.2812 8.48825 11.7383 7.26043C10.672 6.74425 10.1341 5.47597 10.5384 4.26303C10.6694 3.87007 11.0942 3.65771 11.4871 3.78869ZM18.3749 6.00018C18.4743 6.00018 18.5697 5.96067 18.64 5.89034C18.7103 5.82002 18.7499 5.72463 18.7499 5.62518C18.7499 5.52573 18.7103 5.43034 18.64 5.36002C18.5697 5.28969 18.4743 5.25018 18.3749 5.25018C18.2754 5.25018 18.18 5.28969 18.1097 5.36002C18.0394 5.43034 17.9999 5.52573 17.9999 5.62518C17.9999 5.72463 18.0394 5.82002 18.1097 5.89034C18.18 5.96067 18.2754 6.00018 18.3749 6.00018ZM17.5794 4.82969C17.7903 4.61872 18.0765 4.50019 18.3749 4.50019C18.6732 4.50019 18.9594 4.61872 19.1703 4.82969C19.3813 5.04067 19.4998 5.32682 19.4998 5.62518C19.4998 5.92354 19.3813 6.20969 19.1703 6.42067C18.9594 6.63164 18.6732 6.75017 18.3749 6.75017C18.0765 6.75017 17.7903 6.63164 17.5794 6.42067C17.3684 6.20969 17.2499 5.92354 17.2499 5.62518C17.2499 5.32682 17.3684 5.04067 17.5794 4.82969ZM16.2619 6.94446C16.5684 7.22309 16.591 7.69742 16.3123 8.00391L16.3048 8.01216C16.0262 8.31865 15.5519 8.34123 15.2454 8.0626C14.9389 7.78398 14.9163 7.30964 15.1949 7.00316L15.2024 6.99491C15.4811 6.68842 15.9554 6.66583 16.2619 6.94446ZM19.2618 9.19442C19.5683 9.47304 19.5909 9.94737 19.3123 10.2539L19.3048 10.2621C19.0262 10.5686 18.5519 10.5912 18.2454 10.3126C17.9389 10.034 17.9163 9.55963 18.1949 9.25314L18.2024 9.24489C18.481 8.9384 18.9553 8.9158 19.2618 9.19442ZM7.87499 10.5001C7.97444 10.5001 8.06982 10.4606 8.14015 10.3903C8.21047 10.32 8.24998 10.2246 8.24998 10.1251C8.24998 10.0257 8.21047 9.93029 8.14015 9.85996C8.06982 9.78964 7.97444 9.75013 7.87499 9.75013C7.77553 9.75013 7.68015 9.78964 7.60982 9.85996C7.5395 9.93029 7.49999 10.0257 7.49999 10.1251C7.49999 10.2246 7.5395 10.32 7.60982 10.3903C7.68015 10.4606 7.77553 10.5001 7.87499 10.5001ZM7.0795 9.32964C7.29048 9.11866 7.57662 9.00014 7.87499 9.00014C8.17335 9.00014 8.45949 9.11866 8.67047 9.32964C8.88145 9.54061 8.99997 9.82676 8.99997 10.1251C8.99997 10.4235 8.88145 10.7096 8.67047 10.9206C8.45949 11.1316 8.17335 11.2501 7.87499 11.2501C7.57662 11.2501 7.29048 11.1316 7.0795 10.9206C6.86852 10.7096 6.75 10.4235 6.75 10.1251C6.75 9.82676 6.86852 9.54061 7.0795 9.32964ZM11.7619 11.4444C12.0684 11.723 12.091 12.1973 11.8124 12.5038L11.8049 12.5121C11.5263 12.8186 11.0519 12.8412 10.7455 12.5626C10.439 12.2839 10.4164 11.8096 10.695 11.5031L10.7025 11.4949C10.9811 11.1884 11.4554 11.1658 11.7619 11.4444ZM8.76197 13.6944C9.06846 13.973 9.09106 14.4473 8.81244 14.7538L8.80494 14.7621C8.52632 15.0686 8.05199 15.0912 7.74549 14.8125C7.439 14.5339 7.4164 14.0596 7.69502 13.7531L7.70252 13.7448C7.98115 13.4383 8.45548 13.4157 8.76197 13.6944ZM16.2619 13.6944C16.5684 13.973 16.591 14.4473 16.3123 14.7538L16.3048 14.7621C16.0262 15.0686 15.5519 15.0912 15.2454 14.8125C14.9389 14.5339 14.9163 14.0596 15.1949 13.7531L15.2024 13.7448C15.4811 13.4383 15.9554 13.4157 16.2619 13.6944ZM10.9393 15.4394C11.2206 15.1581 11.6021 15.0001 11.9999 15.0001C12.3978 15.0001 12.7793 15.1581 13.0606 15.4394C13.3419 15.7207 13.4999 16.1022 13.4999 16.5C13.4999 16.8979 13.3419 17.2794 13.0606 17.5607C12.7793 17.842 12.3978 18 11.9999 18C11.6021 18 11.2206 17.842 10.9393 17.5607C10.658 17.2794 10.5 16.8979 10.5 16.5C10.5 16.1022 10.658 15.7207 10.9393 15.4394Z" fill="#005469"/>
</svg>
