<svg width="24" height="24" viewBox="0 0 24 24" fill="none" xmlns="http://www.w3.org/2000/svg">
<g id="Frame">
<path id="Union" fill-rule="evenodd" clip-rule="evenodd" d="M18.775 5.51919C19.2119 5.6969 19.6088 5.95734 19.9427 6.28559C20.6175 6.94421 20.9977 7.83824 21 8.77129C21.0022 9.70435 20.6263 10.6001 19.9547 11.2619L15.1618 15.9565C14.8262 16.2856 14.4274 16.5463 13.9883 16.7236C13.5492 16.9009 13.0786 16.9912 12.6036 16.9893C11.6511 16.9947 10.7353 16.6295 10.0574 15.9741C9.72231 15.647 9.45641 15.2583 9.27498 14.8303C9.09355 14.4023 9.00016 13.9435 9.00016 13.4801C9.00016 13.0167 9.09355 12.5578 9.27498 12.1298C9.45641 11.7018 9.72231 11.3132 10.0574 10.9861L10.9082 10.1528L11.7529 10.9861L10.9082 11.8193C10.4585 12.2606 10.2062 12.8587 10.2067 13.4821C10.2073 14.1056 10.4607 14.7033 10.9112 15.1437C11.3616 15.5842 11.9723 15.8313 12.6088 15.8307C13.2452 15.8302 13.8554 15.582 14.3051 15.1408L19.098 10.4462C19.321 10.2277 19.498 9.96833 19.6187 9.68288C19.7394 9.39744 19.8015 9.09149 19.8015 8.78253C19.8015 8.47356 19.7394 8.16762 19.6187 7.88217C19.498 7.59672 19.321 7.33735 19.098 7.11888C18.8749 6.90041 18.6101 6.7271 18.3187 6.60887C18.0273 6.49063 17.7149 6.42977 17.3995 6.42977C17.0841 6.42977 16.7717 6.49063 16.4803 6.60887C16.1889 6.7271 15.9241 6.90041 15.701 7.11888L14.8503 6.28559C15.1843 5.95734 15.5811 5.6969 16.018 5.51919C16.455 5.34148 16.9234 5.25 17.3965 5.25C17.8696 5.25 18.3381 5.34148 18.775 5.51919ZM4.40662 16.1208C4.52775 16.4063 4.70527 16.6655 4.92898 16.8836C5.15166 17.1027 5.41633 17.2766 5.70781 17.3953C5.99928 17.5139 6.31182 17.575 6.62746 17.575C6.9431 17.575 7.25564 17.5139 7.54711 17.3953C7.83859 17.2766 8.10326 17.1027 8.32593 16.8836L9.17667 17.7169C8.49471 18.3793 7.57291 18.7506 6.61248 18.7497C5.66043 18.7614 4.74255 18.4026 4.06028 17.7521C3.72426 17.4249 3.4576 17.0359 3.27564 16.6073C3.09367 16.1788 3 15.7193 3 15.2552C3 14.7911 3.09367 14.3316 3.27564 13.903C3.4576 13.4745 3.72426 13.0855 4.06028 12.7582L8.85315 8.06365C9.52924 7.40142 10.4462 7.02938 11.4024 7.02938C12.3585 7.02938 13.2755 7.40142 13.9516 8.06365C14.6277 8.72588 15.0075 9.62405 15.0075 10.5606C15.0075 11.4971 14.6277 12.3953 13.9516 13.0575L12.6815 14.3016L11.8307 13.4683L13.1008 12.2066C13.3247 11.9871 13.502 11.7262 13.6223 11.4392C13.7426 11.1521 13.8036 10.8445 13.8018 10.5342C13.808 10.2248 13.7507 9.91741 13.6334 9.63013C13.5161 9.34285 13.3411 9.08156 13.1188 8.86173C12.8961 8.64261 12.6315 8.46873 12.34 8.35008C12.0485 8.23143 11.736 8.17036 11.4203 8.17036C11.1047 8.17036 10.7922 8.23143 10.5007 8.35008C10.2092 8.46873 9.94453 8.64261 9.72186 8.86173L4.92898 13.5563C4.70527 13.7744 4.52775 14.0337 4.40662 14.3192C4.28549 14.6047 4.22314 14.9108 4.22314 15.22C4.22314 15.5291 4.28549 15.8353 4.40662 16.1208Z" fill="#005469"/>
</g>
</svg>
