<svg width="32" height="32" viewBox="0 0 32 32" fill="none" xmlns="http://www.w3.org/2000/svg">
<g id="Frame">
<path id="Vector" d="M18.6561 22.5687H22.0875M22.0875 22.5687H25.5189M22.0875 22.5687V19.1373M22.0875 22.5687V26.0001M15.7051 13.8106C16.5632 14.6687 17.7269 15.1507 18.9404 15.1507C20.1538 15.1507 21.3176 14.6687 22.1756 13.8106C23.0336 12.9526 23.5157 11.7888 23.5157 10.5754C23.5157 9.36193 23.0336 8.19819 22.1756 7.34015C21.7507 6.91529 21.2464 6.57828 20.6913 6.34835C20.1362 6.11842 19.5412 6.00007 18.9404 6.00007C17.7269 6.00007 16.5632 6.48211 15.7051 7.34015C14.8471 8.19819 14.365 9.36193 14.365 10.5754C14.365 11.7888 14.8471 12.9526 15.7051 13.8106ZM15.7051 13.8106L6 23.5157L8.426 25.9429M9.23466 20.2811L11.6618 22.7071" stroke="#1820B9" stroke-width="2" stroke-linecap="round" stroke-linejoin="round"/>
</g>
</svg>
