<svg width="32" height="32" viewBox="0 0 32 32" fill="none" xmlns="http://www.w3.org/2000/svg">
<g id="Frame">
<g id="Group">
<path id="Vector" d="M11.9997 12L17.9997 16L23.9997 12M3.99967 18H6.66634M1.33301 14H6.66634" stroke="#1820B9" stroke-width="2" stroke-linecap="round" stroke-linejoin="round"/>
<path id="Vector_2" d="M6.66602 10V9.33334C6.66602 8.62609 6.94697 7.94782 7.44706 7.44772C7.94716 6.94762 8.62544 6.66667 9.33268 6.66667H26.666C27.3733 6.66667 28.0515 6.94762 28.5516 7.44772C29.0517 7.94782 29.3327 8.62609 29.3327 9.33334V22.6667C29.3327 23.3739 29.0517 24.0522 28.5516 24.5523C28.0515 25.0524 27.3733 25.3333 26.666 25.3333H9.33268C8.62544 25.3333 7.94716 25.0524 7.44706 24.5523C6.94697 24.0522 6.66602 23.3739 6.66602 22.6667V22" stroke="#1820B9" stroke-width="2" stroke-linecap="round"/>
</g>
</g>
</svg>
