<svg width="24" height="24" viewBox="0 0 24 24" fill="none" xmlns="http://www.w3.org/2000/svg">
<path fill-rule="evenodd" clip-rule="evenodd" d="M6.40714 4.90116V19.0988H17.5929V7.25004L15.2318 4.90116H6.40714ZM5.55503 4.05345C5.75033 3.85915 6.01522 3.75 6.29143 3.75H15.2801C15.5561 3.75024 15.8212 3.85946 16.0163 4.05365C16.0162 4.05357 16.0164 4.05374 16.0163 4.05365L18.4445 6.46931C18.5417 6.56583 18.6187 6.68051 18.6711 6.80676C18.7234 6.93264 18.7502 7.06754 18.75 7.20374C18.75 7.20412 18.75 7.20451 18.75 7.2049L18.1714 7.20349L18.75 7.20374V19.214C18.75 19.35 18.7231 19.4847 18.6707 19.6104C18.6184 19.7361 18.5417 19.8503 18.445 19.9465C18.3483 20.0428 18.2335 20.1191 18.1071 20.1711C17.9808 20.2232 17.8453 20.25 17.7086 20.25H6.29143C6.15467 20.25 6.01925 20.2232 5.89289 20.1711C5.76654 20.1191 5.65173 20.0428 5.55503 19.9465C5.45832 19.8503 5.38161 19.7361 5.32927 19.6104C5.27694 19.4847 5.25 19.35 5.25 19.214V4.78605C5.25 4.51127 5.35972 4.24775 5.55503 4.05345ZM8.33571 10.4651C8.33571 10.1472 8.59475 9.88953 8.91429 9.88953H15.0857C15.4053 9.88953 15.6643 10.1472 15.6643 10.4651C15.6643 10.783 15.4053 11.0407 15.0857 11.0407H8.91429C8.59475 11.0407 8.33571 10.783 8.33571 10.4651ZM8.33571 13.5349C8.33571 13.217 8.59475 12.9593 8.91429 12.9593H12C12.3195 12.9593 12.5786 13.217 12.5786 13.5349C12.5786 13.8528 12.3195 14.1105 12 14.1105H8.91429C8.59475 14.1105 8.33571 13.8528 8.33571 13.5349ZM8.33571 16.6047C8.33571 16.2868 8.59475 16.0291 8.91429 16.0291H15.0857C15.4053 16.0291 15.6643 16.2868 15.6643 16.6047C15.6643 16.9225 15.4053 17.1802 15.0857 17.1802H8.91429C8.59475 17.1802 8.33571 16.9225 8.33571 16.6047Z" fill="#005469"/>
<path fill-rule="evenodd" clip-rule="evenodd" d="M15.0864 3.75C15.4059 3.75 15.665 4.0077 15.665 4.32558V6.81977H18.1721C18.4916 6.81977 18.7507 7.07746 18.7507 7.39535C18.7507 7.71323 18.4916 7.97093 18.1721 7.97093H15.5492C15.273 7.97093 15.0081 7.86178 14.8128 7.66748C14.6175 7.47318 14.5078 7.20966 14.5078 6.93488V4.32558C14.5078 4.0077 14.7668 3.75 15.0864 3.75Z" fill="#005469"/>
</svg>
