<svg width="24" height="24" viewBox="0 0 24 24" fill="none" xmlns="http://www.w3.org/2000/svg">
<path fill-rule="evenodd" clip-rule="evenodd" d="M5.23077 5.03779C5.17467 5.03779 5.12086 5.0604 5.08119 5.10065C5.04152 5.14091 5.01923 5.1955 5.01923 5.25242V6.61391C5.01923 6.61386 5.01923 6.61395 5.01923 6.61391C5.01928 6.67078 5.04157 6.72544 5.08121 6.76565L10.5084 12.2722C10.5084 12.2722 10.5085 12.2723 10.5084 12.2722C10.7861 12.5539 10.9422 12.9361 10.9423 13.3345V18.3183C10.9423 18.3662 10.9581 18.4126 10.9871 18.4504C11.0161 18.488 11.0566 18.5148 11.1023 18.5265C11.1022 18.5265 11.1023 18.5265 11.1023 18.5265L12.7945 18.9557C12.8257 18.9636 12.8585 18.9643 12.89 18.9576C12.9214 18.9508 12.9509 18.9369 12.9763 18.9168C13.0016 18.8967 13.0222 18.871 13.0363 18.8417C13.0504 18.8124 13.0577 18.7802 13.0577 18.7476V13.3346C13.0578 12.9362 13.2138 12.554 13.4915 12.2723C13.4915 12.2723 13.4915 12.2723 13.4915 12.2723L18.9187 6.76572C18.9584 6.72551 18.9807 6.67092 18.9808 6.61404C18.9808 6.614 18.9808 6.61409 18.9808 6.61404V5.25242C18.9808 5.1955 18.9585 5.1409 18.9188 5.10065C18.8791 5.0604 18.8253 5.03779 18.7692 5.03779H5.23077ZM4.18371 4.19005C4.46141 3.90829 4.83805 3.75 5.23077 3.75H18.7692C19.162 3.75 19.5386 3.90829 19.8163 4.19005C20.094 4.47181 20.25 4.85396 20.25 5.25242V6.61404C20.2499 7.01245 20.0939 7.39464 19.8162 7.67633C19.8162 7.67635 19.8162 7.6763 19.8162 7.67633L14.389 13.1829C14.3493 13.2231 14.327 13.2777 14.3269 13.3346C14.3269 13.3345 14.3269 13.3346 14.3269 13.3346V18.7476C14.3269 18.976 14.2756 19.2014 14.1769 19.4066C14.0781 19.6118 13.9346 19.7915 13.7571 19.932C13.5797 20.0725 13.373 20.1701 13.1528 20.2174C12.9327 20.2647 12.7049 20.2605 12.4866 20.205C12.4865 20.205 12.4867 20.2051 12.4866 20.205L10.7943 19.7758C10.4741 19.6944 10.1896 19.5067 9.98649 19.2427C9.7834 18.9786 9.67309 18.6533 9.67308 18.3183V13.3347C9.67308 13.3347 9.67308 13.3348 9.67308 13.3347C9.67303 13.2779 9.65074 13.2232 9.6111 13.183L4.18387 7.67639C4.18384 7.67637 4.18389 7.67642 4.18387 7.67639C3.90619 7.39471 3.75008 7.01258 3.75 6.61418V5.25242C3.75 4.85395 3.90601 4.47181 4.18371 4.19005Z" fill="white"/>
</svg>
