<svg width="24" height="24" viewBox="0 0 24 24" fill="none" xmlns="http://www.w3.org/2000/svg">
<path fill-rule="evenodd" clip-rule="evenodd" d="M11.8939 5.26171C11.9637 5.2461 12.0363 5.2461 12.1061 5.26171L19.1274 6.83148C19.3453 6.88021 19.5 7.07082 19.5 7.2907V18.2791C19.5 18.5392 19.2857 18.75 19.0213 18.75H4.97872C4.71433 18.75 4.5 18.5392 4.5 18.2791V7.2907C4.5 7.07082 4.65467 6.88021 4.87263 6.83148L11.8939 5.26171ZM5.45745 7.66661V17.8081H6.84043V8.86047C6.84043 8.60038 7.05476 8.38953 7.31915 8.38953H16.6809C16.9452 8.38953 17.1596 8.60038 17.1596 8.86047V17.8081H18.5426V7.66661L12 6.20387L5.45745 7.66661ZM16.2021 17.8081V15.6105H7.79787V17.8081H16.2021ZM7.79787 14.6686H16.2021V12.4709H7.79787V14.6686ZM7.79787 11.5291H16.2021V9.3314H7.79787V11.5291Z" fill="white"/>
</svg>
