<svg width="24" height="24" viewBox="0 0 24 24" fill="none" xmlns="http://www.w3.org/2000/svg">
<path fill-rule="evenodd" clip-rule="evenodd" d="M12 5.25C12.3314 5.25 12.6 5.52473 12.6 5.86364V12.5769L13.9409 11.2225C14.1766 10.9844 14.5565 10.9868 14.7894 11.2279C15.0222 11.469 15.0199 11.8575 14.7841 12.0957L12.4216 14.482C12.1879 14.7181 11.8121 14.7181 11.5784 14.482L9.21588 12.0957C8.98011 11.8575 8.97775 11.469 9.21061 11.2279C9.44346 10.9868 9.82336 10.9844 10.0591 11.2225L11.4 12.5769V5.86364C11.4 5.52473 11.6686 5.25 12 5.25ZM6.6 12.0682C6.93137 12.0682 7.2 12.3429 7.2 12.6818V16.7727C7.2 16.9692 7.27718 17.1591 7.41703 17.3004C7.55712 17.4419 7.7487 17.5227 7.95 17.5227H16.05C16.2513 17.5227 16.4429 17.4419 16.583 17.3004C16.7228 17.1591 16.8 16.9692 16.8 16.7727V12.6818C16.8 12.3429 17.0686 12.0682 17.4 12.0682C17.7314 12.0682 18 12.3429 18 12.6818V16.7727C18 17.2996 17.7927 17.8034 17.4262 18.1736C17.06 18.5435 16.5648 18.75 16.05 18.75H7.95C7.43522 18.75 6.94004 18.5435 6.57379 18.1736C6.20728 17.8034 6 17.2996 6 16.7727V12.6818C6 12.3429 6.26863 12.0682 6.6 12.0682Z" fill="white"/>
</svg>
