<svg width="20" height="20" viewBox="0 0 20 20" fill="none" xmlns="http://www.w3.org/2000/svg">
<path fill-rule="evenodd" clip-rule="evenodd" d="M9.99935 2.00128C5.94926 2.00128 1.99951 5.95121 1.99951 10.0013C1.99951 14.0514 5.94926 18.0013 9.99935 18.0013C14.0494 18.0013 17.9995 14.0514 17.9995 10.0013C17.9995 5.95121 14.0494 2.00128 9.99935 2.00128ZM0.666016 10.0013C0.666016 4.84664 4.84469 0.667969 9.99935 0.667969C15.154 0.667969 19.3327 4.84664 19.3327 10.0013C19.3327 15.156 15.154 19.3346 9.99935 19.3346C4.84469 19.3346 0.666016 15.156 0.666016 10.0013Z" fill="#194185"/>
<path d="M11 6C11 6.55229 10.5523 7 10 7C9.44772 7 9 6.55229 9 6C9 5.44772 9.44772 5 10 5C10.5523 5 11 5.44772 11 6Z" fill="#194185"/>
<path fill-rule="evenodd" clip-rule="evenodd" d="M10 8.16797C10.5523 8.16797 11 8.61568 11 9.16797V14.168C11 14.7203 10.5523 15.168 10 15.168C9.44772 15.168 9 14.7203 9 14.168V9.16797C9 8.61568 9.44772 8.16797 10 8.16797Z" fill="#194185"/>
</svg>
