<svg width="32" height="32" viewBox="0 0 32 32" fill="none" xmlns="http://www.w3.org/2000/svg">
<path fill-rule="evenodd" clip-rule="evenodd" d="M17.1336 5.04153C17.4821 5.15487 17.7181 5.47971 17.7181 5.84621V12.8975H23.6411C23.9594 12.8975 24.2507 13.076 24.3951 13.3596C24.5396 13.6432 24.5126 13.9839 24.3254 14.2413L15.2998 26.6515C15.0843 26.9479 14.7024 27.0718 14.3539 26.9585C14.0053 26.8451 13.7694 26.5203 13.7694 26.1538V19.1025H7.84634C7.52808 19.1025 7.23674 18.924 7.09232 18.6404C6.9479 18.3568 6.97483 18.0161 7.16202 17.7587L16.1876 5.34853C16.4032 5.05212 16.7851 4.9282 17.1336 5.04153ZM9.50798 17.4102H14.6155C15.0828 17.4102 15.4617 17.7891 15.4617 18.2564V23.5517L21.9795 14.5898H16.8719C16.4046 14.5898 16.0258 14.2109 16.0258 13.7436V8.44827L9.50798 17.4102Z" fill="#002D38"/>
</svg>
