<svg width="24" height="24" viewBox="0 0 24 24" fill="none" xmlns="http://www.w3.org/2000/svg">
<path fill-rule="evenodd" clip-rule="evenodd" d="M4.49614 5.42845C4.81127 5.69727 4.84881 6.17066 4.57998 6.48579L4.57061 6.49678C4.30178 6.81191 3.82839 6.84944 3.51326 6.58062C3.19814 6.3118 3.1606 5.83841 3.42942 5.52328L3.4388 5.51229C3.70762 5.19716 4.18101 5.15962 4.49614 5.42845ZM7.00001 6.00004C7.00001 5.58582 7.3358 5.25004 7.75001 5.25004H19C19.4142 5.25004 19.75 5.58582 19.75 6.00004C19.75 6.41425 19.4142 6.75004 19 6.75004H7.75001C7.3358 6.75004 7.00001 6.41425 7.00001 6.00004ZM4.49613 11.4229C4.81126 11.6918 4.84881 12.1651 4.57999 12.4803L4.57062 12.4913C4.3018 12.8064 3.82841 12.844 3.51328 12.5751C3.19814 12.3063 3.16059 11.8329 3.42941 11.5178L3.43879 11.5068C3.70761 11.1917 4.18099 11.1541 4.49613 11.4229ZM7.00001 11.9945C7.00001 11.5803 7.3358 11.2445 7.75001 11.2445H19C19.4142 11.2445 19.75 11.5803 19.75 11.9945C19.75 12.4088 19.4142 12.7445 19 12.7445H7.75001C7.3358 12.7445 7.00001 12.4088 7.00001 11.9945ZM4.49615 17.4175C4.81127 17.6863 4.8488 18.1597 4.57997 18.4748L4.5706 18.4858C4.30176 18.8009 3.82838 18.8385 3.51325 18.5696C3.19813 18.3008 3.1606 17.8274 3.42943 17.5123L3.43881 17.5013C3.70764 17.1862 4.18103 17.1486 4.49615 17.4175ZM7.00001 17.989C7.00001 17.5748 7.3358 17.239 7.75001 17.239H19C19.4142 17.239 19.75 17.5748 19.75 17.989C19.75 18.4033 19.4142 18.739 19 18.739H7.75001C7.3358 18.739 7.00001 18.4033 7.00001 17.989Z" fill="white"/>
</svg>
