<svg width="32" height="32" viewBox="0 0 32 32" fill="none" xmlns="http://www.w3.org/2000/svg">
<g id="Frame">
<path id="Vector" d="M21.3333 16.0002H23.2C23.4122 16.0002 23.6157 16.0844 23.7657 16.2345C23.9157 16.3845 24 16.588 24 16.8002V25.8668C24 26.079 23.9157 26.2825 23.7657 26.4325C23.6157 26.5825 23.4122 26.6668 23.2 26.6668H8.8C8.58783 26.6668 8.38434 26.5825 8.23431 26.4325C8.08429 26.2825 8 26.079 8 25.8668V16.8002C8 16.588 8.08429 16.3845 8.23431 16.2345C8.38434 16.0844 8.58783 16.0002 8.8 16.0002H10.6667M21.3333 16.0002V10.6668C21.3333 8.8895 20.2667 5.3335 16 5.3335C11.7333 5.3335 10.6667 8.8895 10.6667 10.6668V16.0002M21.3333 16.0002H10.6667" stroke="#1820B9" stroke-width="2" stroke-linecap="round" stroke-linejoin="round"/>
</g>
</svg>
