<svg width="32" height="32" viewBox="0 0 32 32" fill="none" xmlns="http://www.w3.org/2000/svg">
<g id="Frame">
<path id="Vector (Stroke)" fill-rule="evenodd" clip-rule="evenodd" d="M9.37569 9.37569C10.8968 7.85456 12.9599 7 15.1111 7C17.2623 7 19.3254 7.85456 20.8465 9.37569C22.3677 10.8968 23.2222 12.9599 23.2222 15.1111C23.2222 16.9263 22.6138 18.6787 21.5099 20.0957L24.7071 23.2929C25.0976 23.6834 25.0976 24.3166 24.7071 24.7071C24.3166 25.0976 23.6834 25.0976 23.2929 24.7071L20.0957 21.5099C18.6787 22.6138 16.9263 23.2222 15.1111 23.2222C12.9599 23.2222 10.8968 22.3677 9.37569 20.8465C7.85456 19.3254 7 17.2623 7 15.1111C7 12.9599 7.85456 10.8968 9.37569 9.37569ZM15.1111 9C13.4903 9 11.936 9.64385 10.7899 10.7899C9.64385 11.936 9 13.4903 9 15.1111C9 16.7319 9.64385 18.2863 10.7899 19.4323C11.936 20.5784 13.4903 21.2222 15.1111 21.2222C16.7319 21.2222 18.2863 20.5784 19.4323 19.4323C20.5784 18.2863 21.2222 16.7319 21.2222 15.1111C21.2222 13.4903 20.5784 11.936 19.4323 10.7899C18.2863 9.64385 16.7319 9 15.1111 9Z" fill="white"/>
</g>
</svg>
