<svg width="24" height="24" viewBox="0 0 24 24" fill="none" xmlns="http://www.w3.org/2000/svg">
<path d="M4.5 8.16535L11.7542 11.3326L12.2458 10.2478L4.99167 7.08057L4.5 8.16535ZM12.6045 19.5002V10.7902H11.3955V19.5002H12.6045ZM12.2458 11.3326L19.5 8.16535L19.0083 7.08057L11.7542 10.2478L12.2458 11.3326Z" fill="black"/>
<path fill-rule="evenodd" clip-rule="evenodd" d="M4.99167 7.08057L4.5 8.16535L11.3955 11.176V19.5002H12.6045V11.176L19.5 8.16535L19.0083 7.08061L12 10.1405L4.99167 7.08057Z" fill="white"/>
<path fill-rule="evenodd" clip-rule="evenodd" d="M12.0003 5.06897L18.6919 7.99115V15.9644L12.0003 18.8866L5.30859 15.9644V7.99115L12.0003 5.06897ZM11.9716 18.8991C11.9715 18.8992 11.9717 18.8991 11.9716 18.8991V18.8991ZM12.0286 18.899C12.0285 18.8989 12.0287 18.899 12.0286 18.899V18.899ZM11.5782 4.02568C11.7114 3.96744 11.8552 3.9375 12.0003 3.9375C12.1453 3.9375 12.2889 3.9674 12.422 4.02557C12.422 4.02553 12.4221 4.0256 12.422 4.02557L19.1926 6.9822C19.3763 7.06254 19.5342 7.19427 19.6455 7.36264C19.757 7.53111 19.8169 7.72872 19.8169 7.93147V16.0239C19.8169 16.2267 19.757 16.4244 19.6455 16.5929C19.5342 16.7613 19.3766 16.8929 19.1928 16.9732L12.4223 19.9299C12.2891 19.9881 12.1454 20.018 12.0003 20.018C11.8552 20.018 11.7114 19.9881 11.5782 19.9299L4.80793 16.9733C4.62419 16.893 4.4663 16.7613 4.35497 16.5929C4.24355 16.4244 4.18364 16.2268 4.18359 16.0241V7.9316C4.18364 7.72885 4.24355 7.53111 4.35497 7.36264C4.4663 7.19427 4.62393 7.06266 4.80767 6.98231L11.5782 4.02568Z" fill="white"/>
<path fill-rule="evenodd" clip-rule="evenodd" d="M7.85769 5.81412C7.982 5.52941 8.31357 5.39939 8.59828 5.5237L15.5655 8.56585C15.7492 8.64619 15.9071 8.77793 16.0185 8.9463C16.1299 9.11478 16.1898 9.31238 16.1899 9.51513V12.3737C16.1899 12.6844 15.938 12.9362 15.6274 12.9362C15.3167 12.9362 15.0649 12.6844 15.0649 12.3737V9.57482L8.1481 6.55471C7.8634 6.43039 7.73338 6.09882 7.85769 5.81412Z" fill="white"/>
</svg>
