<svg width="32" height="32" viewBox="0 0 32 32" fill="none" xmlns="http://www.w3.org/2000/svg">
<path fill-rule="evenodd" clip-rule="evenodd" d="M7.06993 8.67442C6.69986 8.67442 6.34495 8.82143 6.08327 9.08311C5.82159 9.34479 5.67458 9.6997 5.67458 10.0698V21.2326C5.67458 21.6026 5.82159 21.9575 6.08327 22.2192C6.34495 22.4809 6.69986 22.6279 7.06993 22.6279H24.9304C25.3005 22.6279 25.6554 22.4809 25.9171 22.2192C26.1787 21.9575 26.3257 21.6026 26.3257 21.2326V13.1395H9.30249C8.84011 13.1395 8.46528 12.7647 8.46528 12.3023C8.46528 11.8399 8.84011 11.4651 9.30249 11.4651H26.3257V10.0698C26.3257 9.6997 26.1787 9.34479 25.9171 9.08311C25.6554 8.82143 25.3005 8.67442 24.9304 8.67442H7.06993ZM4.89927 7.89911C5.47497 7.32342 6.25577 7 7.06993 7H24.9304C25.7445 7 26.5254 7.32342 27.101 7.89911C27.6767 8.47481 28.0002 9.25561 28.0002 10.0698V21.2326C28.0002 22.0467 27.6767 22.8275 27.101 23.4032C26.5254 23.9789 25.7445 24.3023 24.9304 24.3023H7.06993C6.25577 24.3023 5.47497 23.9789 4.89927 23.4032C4.32358 22.8275 4.00016 22.0467 4.00016 21.2326V10.0698C4.00016 9.25561 4.32358 8.47481 4.89927 7.89911Z" fill="#002D38"/>
</svg>
