<svg width="32" height="32" viewBox="0 0 32 32" fill="none" xmlns="http://www.w3.org/2000/svg">
<path d="M13.3343 14.9701L3.79171 24.4299C3.54073 24.6785 3.34162 24.9736 3.20577 25.2985C3.06992 25.6233 3 25.9716 3 26.3232C3 26.6749 3.06992 27.0231 3.20577 27.348C3.34162 27.6729 3.54073 27.968 3.79171 28.2166C4.29794 28.7182 4.98443 29.0001 5.70023 29.0001C6.41603 29.0001 7.10252 28.7182 7.60874 28.2166L17.1513 18.754M22.9754 19.2424L28.2096 24.4313C28.7157 24.9331 29 25.6136 29 26.3232C29 27.0328 28.7157 27.7134 28.2096 28.2152C27.7034 28.7169 27.0169 28.9987 26.3011 28.9987C25.5853 28.9987 24.8988 28.7169 24.3926 28.2152L16.0121 19.9087M8.85724 8.67732L5.99177 9.62197L3.13035 4.89204L5.03886 3.00007L9.8115 5.83803L8.85724 8.67732ZM8.85724 8.67732L12.677 12.4639" stroke="#1820B9" stroke-width="1.5" stroke-linecap="round" stroke-linejoin="round"/>
<path d="M13.3343 14.9702C12.1951 12.0894 12.4178 8.30951 14.7663 5.98134C17.1149 3.65317 21.4475 3.14338 23.8324 4.56303L19.7293 8.63064L19.3473 12.7932L23.5463 12.4159L27.6495 8.34697C29.0829 10.7126 28.5673 15.0077 26.2188 17.3345C23.8702 19.6627 20.0586 19.8835 17.1526 18.7542" stroke="#1820B9" stroke-width="1.5" stroke-linecap="round" stroke-linejoin="round"/>
</svg>
