<svg width="25" height="24" viewBox="0 0 25 24" fill="none" xmlns="http://www.w3.org/2000/svg">
<g id="Frame 9545">
<g id="Group 71">
<path id="Line 1 (Stroke)" fill-rule="evenodd" clip-rule="evenodd" d="M4.25 6C4.25 5.58579 4.58579 5.25 5 5.25L20.75 5.25C21.1642 5.25 21.5 5.58579 21.5 6C21.5 6.41421 21.1642 6.75 20.75 6.75L5 6.75C4.58579 6.75 4.25 6.41421 4.25 6Z" fill="#1820B9"/>
<path id="Line 2 (Stroke)" fill-rule="evenodd" clip-rule="evenodd" d="M4.25 9.75C4.25 9.33579 4.58579 9 5 9H16.25C16.6642 9 17 9.33579 17 9.75C17 10.1642 16.6642 10.5 16.25 10.5H5C4.58579 10.5 4.25 10.1642 4.25 9.75Z" fill="#1820B9"/>
<path id="Line 3 (Stroke)" fill-rule="evenodd" clip-rule="evenodd" d="M4.25 13.5C4.25 13.0858 4.58579 12.75 5 12.75H12.5C12.9142 12.75 13.25 13.0858 13.25 13.5C13.25 13.9142 12.9142 14.25 12.5 14.25H5C4.58579 14.25 4.25 13.9142 4.25 13.5Z" fill="#1820B9"/>
<path id="Line 4 (Stroke)" fill-rule="evenodd" clip-rule="evenodd" d="M4.25 17.25C4.25 16.8358 4.58579 16.5 5 16.5H8C8.41421 16.5 8.75 16.8358 8.75 17.25C8.75 17.6642 8.41421 18 8 18H5C4.58579 18 4.25 17.6642 4.25 17.25Z" fill="#1820B9"/>
</g>
</g>
</svg>
