<svg width="24" height="24" viewBox="0 0 24 24" fill="none" xmlns="http://www.w3.org/2000/svg">
<path d="M11.6744 6.41357L13.3008 9.70179L13.5719 10.2911L14.1612 10.3795L17.7912 10.9039L15.2101 13.4379L14.7682 13.868L14.8742 14.4573L15.493 18.0696L12.246 16.3666L11.6744 16.125L11.1264 16.4138L7.87941 18.0932L8.46869 14.4809L8.57477 13.8916L8.13869 13.4379L5.53405 10.8745L9.16405 10.35L9.75334 10.2616L10.0244 9.67232L11.6744 6.41357ZM11.6744 3.75L8.99316 9.18321L3.00012 10.0495L7.33727 14.2805L6.31191 20.25L11.6744 17.4332L17.0369 20.25L16.0116 14.2805L20.3487 10.0554L14.3557 9.18321L11.6744 3.75Z" fill="white"/>
</svg>
