<svg width="32" height="32" viewBox="0 0 32 32" fill="none" xmlns="http://www.w3.org/2000/svg">
<path fill-rule="evenodd" clip-rule="evenodd" d="M9.51297 11.4868C9.51297 11.0195 9.89181 10.6406 10.3591 10.6406H17.1284C17.5957 10.6406 17.9745 11.0195 17.9745 11.4868C17.9745 11.9541 17.5957 12.3329 17.1284 12.3329H10.3591C9.89181 12.3329 9.51297 11.9541 9.51297 11.4868ZM9.51297 15.9996C9.51297 15.5323 9.89181 15.1534 10.3591 15.1534H21.6412C22.1085 15.1534 22.4873 15.5323 22.4873 15.9996C22.4873 16.4669 22.1085 16.8458 21.6412 16.8458H10.3591C9.89181 16.8458 9.51297 16.4669 9.51297 15.9996Z" fill="#002D38"/>
<path fill-rule="evenodd" clip-rule="evenodd" d="M8.10256 6.69231C7.72854 6.69231 7.36984 6.84089 7.10536 7.10536C6.84089 7.36984 6.69231 7.72854 6.69231 8.10256V24.8701L9.02129 21.9586C9.31193 21.5956 9.68069 21.3023 10.0998 21.1009C10.519 20.8995 10.9781 20.7949 11.4431 20.7949H23.8974C24.2715 20.7949 24.6302 20.6463 24.8946 20.3818C25.1591 20.1173 25.3077 19.7586 25.3077 19.3846V8.10256C25.3077 7.72854 25.1591 7.36984 24.8946 7.10536C24.6302 6.84089 24.2715 6.69231 23.8974 6.69231H8.10256ZM6.39079 25.247C6.39101 25.2468 6.39123 25.2465 6.39145 25.2462L6.39079 25.247ZM5.90872 5.90872C6.49056 5.32688 7.27971 5 8.10256 5H23.8974C24.7203 5 25.5094 5.32688 26.0913 5.90872C26.6731 6.49056 27 7.27971 27 8.10256V19.3846C27 20.2075 26.6731 20.9966 26.0913 21.5785C25.5094 22.1603 24.7203 22.4872 23.8974 22.4872H11.4433C11.4433 22.4872 11.4433 22.4872 11.4433 22.4872C11.2319 22.4872 11.0232 22.5348 10.8327 22.6263C10.6423 22.7178 10.4749 22.8509 10.3428 23.0157C10.3427 23.0158 10.3429 23.0156 10.3428 23.0157L7.71362 26.3025C7.71358 26.3026 7.71365 26.3025 7.71362 26.3025C7.51671 26.5492 7.24791 26.7288 6.94456 26.8162C6.64116 26.9035 6.31812 26.8945 6.02011 26.7902C5.7221 26.6859 5.46385 26.4916 5.2811 26.2342C5.09834 25.9767 5.00011 25.6689 5 25.3531L5 8.10256C5 7.27971 5.32688 6.49056 5.90872 5.90872Z" fill="#002D38"/>
</svg>
