<svg width="24" height="24" viewBox="0 0 24 24" fill="none" xmlns="http://www.w3.org/2000/svg">
<g id="Frame">
<g id="Group">
<path id="Vector (Stroke)" fill-rule="evenodd" clip-rule="evenodd" d="M3.33104 5.83892C3.543 5.62191 3.83048 5.5 4.13023 5.5H10.3256C10.9362 5.5 11.5218 5.74834 11.9536 6.19039C11.9693 6.20649 11.9848 6.22281 12 6.23932C12.0152 6.22281 12.0307 6.20649 12.0464 6.19039C12.4782 5.74834 13.0638 5.5 13.6744 5.5H19.8698C20.0182 5.5 20.1652 5.52993 20.3023 5.58808C20.4394 5.64623 20.564 5.73147 20.669 5.83892C20.7739 5.94637 20.8572 6.07393 20.914 6.21432C20.9708 6.35472 21 6.50519 21 6.65714V17.8977C21 17.9396 20.9961 17.9806 20.9886 18.0203C20.9961 18.06 21 18.1009 21 18.1429C21 18.4979 20.7189 18.7857 20.3721 18.7857H13.6744C13.3276 18.7857 13.0465 18.4979 13.0465 18.1429C13.0465 17.7878 13.3276 17.5 13.6744 17.5H19.7442V6.78571H13.6744C13.3969 6.78571 13.1307 6.8986 12.9344 7.09953C12.7382 7.30046 12.6279 7.57298 12.6279 7.85714V19.8571C12.6279 20.2122 12.3468 20.5 12 20.5C11.6532 20.5 11.3721 20.2122 11.3721 19.8571V7.85714C11.3721 7.57298 11.2618 7.30046 11.0656 7.09953C10.8693 6.8986 10.6031 6.78571 10.3256 6.78571H4.25581V17.5H10.3256C10.6724 17.5 10.9535 17.7878 10.9535 18.1429C10.9535 18.4979 10.6724 18.7857 10.3256 18.7857H3.62791C3.28112 18.7857 3 18.4979 3 18.1429C3 18.1009 3.00392 18.06 3.0114 18.0203C3.00392 17.9806 3 17.9396 3 17.8977V6.65714C3 6.35025 3.11908 6.05593 3.33104 5.83892Z" fill="#1820B9"/>
<path id="Vector (Stroke)_2" fill-rule="evenodd" clip-rule="evenodd" d="M9.69727 18.1429C9.69727 17.7878 9.97839 17.5 10.3252 17.5C10.9358 17.5 11.5214 17.7483 11.9532 18.1904C11.9689 18.2065 11.9844 18.2228 11.9996 18.2393C12.0148 18.2228 12.0303 18.2065 12.046 18.1904C12.4778 17.7483 13.0634 17.5 13.674 17.5C14.0208 17.5 14.3019 17.7878 14.3019 18.1429C14.3019 18.4979 14.0208 18.7857 13.674 18.7857C13.3965 18.7857 13.1303 18.8986 12.934 19.0995C12.7378 19.3005 12.6275 19.573 12.6275 19.8571C12.6275 20.2122 12.3464 20.5 11.9996 20.5C11.6528 20.5 11.3717 20.2122 11.3717 19.8571C11.3717 19.573 11.2614 19.3005 11.0652 19.0995C10.8689 18.8986 10.6027 18.7857 10.3252 18.7857C9.97839 18.7857 9.69727 18.4979 9.69727 18.1429Z" fill="#1820B9"/>
</g>
</g>
</svg>
