<svg width="24" height="24" viewBox="0 0 24 24" fill="none" xmlns="http://www.w3.org/2000/svg">
<path fill-rule="evenodd" clip-rule="evenodd" d="M12.7742 1C12.9118 1 13.038 1 13.1516 1.00101C13.4838 1.00395 13.7866 1.01439 14.1001 1.08758C14.4337 1.16543 14.7524 1.29418 15.0452 1.46861C15.3793 1.66765 15.658 1.93903 15.991 2.26327C16.0118 2.28354 16.0328 2.30401 16.0541 2.32468L19.626 5.79744C19.6463 5.81721 19.6665 5.83678 19.6865 5.85616C20.0212 6.18118 20.3009 6.45277 20.5081 6.78144L19.6621 7.31466M19.6621 7.31466L20.5081 6.78144C20.6896 7.0694 20.825 7.3851 20.907 7.7173C20.9802 8.01355 20.9941 8.29937 20.9981 8.60368C20.9993 8.62451 21 8.64551 21 8.66667C21 8.68106 20.9997 8.69537 20.9991 8.70961C20.9998 8.80757 20.9998 8.9142 20.9998 9.02854V18.4887C20.9998 19.0754 20.9998 19.5769 20.9652 19.989C20.9286 20.4231 20.8485 20.8465 20.6366 21.2507C20.3175 21.8597 19.8103 22.3493 19.195 22.6541C18.7889 22.8553 18.3641 22.9316 17.9238 22.9666C17.5035 23 16.9908 23 16.385 23L7.61495 23C7.00904 23 6.49612 23 6.07554 22.9666C5.63522 22.9316 5.21005 22.8553 4.80386 22.6541C4.18742 22.3487 3.68198 21.8586 3.36339 21.2507C3.15137 20.8462 3.07119 20.4225 3.03466 19.9878C2.99997 19.5751 2.99998 19.0729 3 18.4849V5.51556C2.99998 4.92757 2.99997 4.42514 3.03465 4.01228C3.07117 3.57757 3.15132 3.15358 3.36339 2.74892C3.68227 2.14046 4.18799 1.65122 4.80385 1.34613C5.21033 1.14477 5.63584 1.06842 6.07669 1.03342C6.49782 0.999973 12.1671 0.999987 12.7742 1M18.6689 7.66667C18.5846 7.57694 18.453 7.44643 18.2318 7.23142L14.6599 3.75866C14.3779 3.48452 14.2366 3.35096 14.1427 3.27365V5.11111C14.1427 5.75037 14.1436 6.16783 14.1704 6.48668C14.1961 6.79294 14.2405 6.91787 14.2776 6.98869C14.3974 7.21737 14.591 7.40804 14.8344 7.52862C14.9166 7.56937 15.0556 7.61405 15.3767 7.63956C15.7086 7.66593 16.1415 7.66667 16.7963 7.66667L18.6689 7.66667ZM12.1427 3H7.65732C7.00123 3 6.5675 3.00074 6.23501 3.02714C5.91333 3.05268 5.77411 3.09744 5.69165 3.13829C5.44736 3.2593 5.25426 3.44948 5.13486 3.6773C5.09781 3.748 5.05339 3.87306 5.02763 4.17971C5.00082 4.49882 5 4.91654 5 5.55577V18.4447C5 19.0839 5.00082 19.5014 5.02763 19.8203C5.05337 20.1266 5.09776 20.2515 5.13486 20.3223C5.25455 20.5507 5.44793 20.7412 5.69165 20.862C5.77391 20.9027 5.91285 20.9474 6.23394 20.9729C6.56585 20.9993 6.99875 21 7.6536 21L16.3462 21C17.0011 21 17.4337 20.9993 17.7653 20.9729C18.086 20.9474 18.2248 20.9028 18.3072 20.862C18.552 20.7407 18.746 20.5497 18.8652 20.3223C18.9022 20.2517 18.9465 20.1271 18.9722 19.8214C18.999 19.5031 18.9998 19.0865 18.9998 18.4484V9.66667L16.7577 9.66667C16.1518 9.66668 15.6389 9.6667 15.2183 9.63328C14.7779 9.5983 14.3528 9.522 13.9466 9.32077C13.3298 9.01525 12.8245 8.52466 12.5061 7.91707C12.2941 7.51253 12.2139 7.08886 12.1774 6.65421C12.1427 6.24155 12.1427 5.73931 12.1427 5.15137V3Z" fill="#545354"/>
</svg>
