<svg width="25" height="24" viewBox="0 0 25 24" fill="none" xmlns="http://www.w3.org/2000/svg">
<g clip-path="url(#clip0_818_15909)">
<path d="M5.95208 6.57807C6.85631 4.34887 9.12119 2.24023 12.5 2.24023C16.1352 2.24023 19.2335 4.71363 19.9128 8.71624C20.8719 8.85981 21.8762 9.22715 22.7031 9.84141C23.7309 10.6049 24.5 11.7682 24.5 13.3215C24.5 14.8276 23.8659 16.0257 22.8336 16.8289C21.8217 17.6162 20.4749 17.9902 19.0625 17.9902H15.5C15.0858 17.9902 14.75 17.6544 14.75 17.2402C14.75 16.826 15.0858 16.4902 15.5 16.4902H19.0625C20.2283 16.4902 21.2252 16.1797 21.9125 15.645C22.5794 15.1261 23 14.3649 23 13.3215C23 12.3253 22.5269 11.5791 21.8086 11.0455C21.0718 10.4982 20.0953 10.1955 19.2129 10.1518C18.8434 10.1335 18.5425 9.84859 18.5041 9.4807C18.1262 5.86527 15.5277 3.74023 12.5 3.74023C9.64101 3.74023 7.81311 5.6263 7.21419 7.49423C7.12259 7.7799 6.86958 7.9835 6.57093 8.01187C3.98645 8.2574 2 9.8485 2 12.2527C2 14.6697 4.08853 16.4902 6.875 16.4902H9.5C9.91421 16.4902 10.25 16.826 10.25 17.2402C10.25 17.6544 9.91421 17.9902 9.5 17.9902H6.875C3.47397 17.9902 0.5 15.697 0.5 12.2527C0.5 8.97712 3.09336 7.02015 5.95208 6.57807Z" fill="#1820B9"/>
<path d="M13.0303 8.45991L16.0303 11.4599C16.3232 11.7528 16.3232 12.2277 16.0303 12.5206C15.7374 12.8135 15.2626 12.8135 14.9697 12.5206L13.25 10.8009V21.0099C13.25 21.4241 12.9142 21.7599 12.5 21.7599C12.0858 21.7599 11.75 21.4241 11.75 21.0099V10.8009L10.0303 12.5206C9.73744 12.8135 9.26256 12.8135 8.96967 12.5206C8.67678 12.2277 8.67678 11.7528 8.96967 11.4599L11.9697 8.45991C12.2626 8.16701 12.7374 8.16701 13.0303 8.45991Z" fill="#1820B9"/>
</g>
<defs>
<clipPath id="clip0_818_15909">
<rect width="24" height="24" fill="white" transform="translate(0.5)"/>
</clipPath>
</defs>
</svg>
