<svg width="24" height="24" viewBox="0 0 24 24" fill="none" xmlns="http://www.w3.org/2000/svg">
    <path fill-rule="evenodd" clip-rule="evenodd" d="M9.48093 6.48093C10.149 5.81283 11.0552 5.4375 12 5.4375C12.9448 5.4375 13.851 5.81283 14.5191 6.48093C15.1872 7.14903 15.5625 8.05517 15.5625 9C15.5625 9.94483 15.1872 10.851 14.5191 11.5191C14.4005 11.6376 14.2745 11.7469 14.1421 11.8466C14.8725 12.1362 15.5437 12.5736 16.1101 13.1399C17.2001 14.23 17.8125 15.7084 17.8125 17.25V18C17.8125 18.3107 17.5607 18.5625 17.25 18.5625C16.9393 18.5625 16.6875 18.3107 16.6875 18V17.25C16.6875 16.0068 16.1936 14.8145 15.3146 13.9354C14.4355 13.0564 13.2432 12.5625 12 12.5625C10.7568 12.5625 9.56451 13.0564 8.68544 13.9354C7.80636 14.8145 7.3125 16.0068 7.3125 17.25V18C7.3125 18.3107 7.06066 18.5625 6.75 18.5625C6.43934 18.5625 6.1875 18.3107 6.1875 18V17.25C6.1875 15.7084 6.79989 14.23 7.88994 13.1399C8.45631 12.5736 9.12751 12.1362 9.85795 11.8466C9.72552 11.7469 9.59948 11.6376 9.48093 11.5191C8.81283 10.851 8.4375 9.94483 8.4375 9C8.4375 8.05517 8.81283 7.14903 9.48093 6.48093ZM12 6.5625C11.3535 6.5625 10.7335 6.81931 10.2764 7.27643C9.81931 7.73355 9.5625 8.35353 9.5625 9C9.5625 9.64647 9.81931 10.2665 10.2764 10.7236C10.7335 11.1807 11.3535 11.4375 12 11.4375C12.6465 11.4375 13.2665 11.1807 13.7236 10.7236C14.1807 10.2665 14.4375 9.64647 14.4375 9C14.4375 8.35353 14.1807 7.73355 13.7236 7.27643C13.2665 6.81931 12.6465 6.5625 12 6.5625Z" fill="white"/>
</svg>
