<svg width="24" height="24" viewBox="0 0 24 24" fill="none" xmlns="http://www.w3.org/2000/svg">
<g id="Vendor">
<path id="Vector" d="M14 5C14 4.46957 13.7893 3.96086 13.4142 3.58579C13.0391 3.21071 12.5304 3 12 3C11.4696 3 10.9609 3.21071 10.5858 3.58579C10.2107 3.96086 10 4.46957 10 5M19.26 9.696L20.645 18.696C20.6888 18.9808 20.6705 19.2718 20.5914 19.5489C20.5123 19.8261 20.3743 20.0828 20.1867 20.3016C19.9991 20.5204 19.7665 20.6961 19.5047 20.8167C19.2429 20.9372 18.9582 20.9997 18.67 21H5.33C5.04163 21 4.75666 20.9377 4.49464 20.8173C4.23261 20.6969 3.99973 20.5212 3.81194 20.3024C3.62416 20.0836 3.48592 19.8267 3.4067 19.5494C3.32749 19.2721 3.30916 18.981 3.353 18.696L4.738 9.696C4.81065 9.22359 5.05008 8.79282 5.41292 8.4817C5.77577 8.17059 6.23803 7.9997 6.716 8H17.284C17.7618 7.99994 18.2238 8.17094 18.5865 8.48203C18.9491 8.79312 19.1874 9.22376 19.26 9.696Z" stroke="#1820B9" stroke-width="1.5" stroke-linecap="round" stroke-linejoin="round"/>
</g>
</svg>
