<svg width="24" height="24" viewBox="0 0 24 24" fill="none" xmlns="http://www.w3.org/2000/svg">
<path fill-rule="evenodd" clip-rule="evenodd" d="M5.10742 16.9413V10.5884H5.91833V16.9413C5.91833 17.2104 6.0275 17.4685 6.22182 17.6588C6.41614 17.8491 6.67969 17.956 6.9545 17.956H17.0458C17.3206 17.956 17.5842 17.8491 17.7785 17.6588C17.9728 17.4685 18.082 17.2104 18.082 16.9413V10.5884H18.8929V16.9413C18.8929 17.421 18.6983 17.8811 18.3519 18.2203C18.0055 18.5595 17.5357 18.7501 17.0458 18.7501H6.9545C6.46462 18.7501 5.99481 18.5595 5.64842 18.2203C5.30202 17.8811 5.10742 17.421 5.10742 16.9413Z" fill="white"/>
<path fill-rule="evenodd" clip-rule="evenodd" d="M9.85252 12.8384C10.1989 12.4992 10.6687 12.3086 11.1586 12.3086H12.6002C13.0901 12.3086 13.5599 12.4992 13.9063 12.8384C14.2527 13.1776 14.4473 13.6377 14.4473 14.1174V18.3527H13.6364V14.1174C13.6364 13.8483 13.5272 13.5902 13.3329 13.3999C13.1386 13.2096 12.875 13.1027 12.6002 13.1027H11.1586C10.8838 13.1027 10.6202 13.2096 10.4259 13.3999C10.2316 13.5902 10.1224 13.8483 10.1224 14.1174V18.3527H9.31152V14.1174C9.31152 13.6377 9.50612 13.1776 9.85252 12.8384Z" fill="white"/>
<path fill-rule="evenodd" clip-rule="evenodd" d="M14.082 5.25L17.4397 5.25C17.4396 5.25 17.4397 5.25 17.4397 5.25C17.6217 5.24998 17.7989 5.30802 17.9443 5.41535C18.0897 5.52269 18.1954 5.67348 18.2455 5.84492L19.4657 10.0273C19.4994 10.1373 19.5085 10.2531 19.4924 10.3669C19.4761 10.4821 19.4342 10.5924 19.3699 10.6902C19.3055 10.7879 19.2202 10.8707 19.1197 10.9328C19.0193 10.9949 18.9063 11.0348 18.7885 11.0497L18.786 11.0501C18.4717 11.0879 18.0347 11.1279 17.578 11.1295C17.1268 11.1311 16.6289 11.0955 16.2053 10.9677C15.7242 10.8227 15.1369 10.4954 14.8575 10.3319L14.8562 10.3312C14.7441 10.265 14.6498 10.1737 14.581 10.0647C14.5124 9.95597 14.4713 9.83286 14.4609 9.70552L14.082 5.25ZM14.9633 6.04411L15.2693 9.6424C15.2694 9.64413 15.27 9.64581 15.2709 9.64729C15.2718 9.6487 15.273 9.6499 15.2744 9.65078C15.5574 9.8163 16.0677 10.0954 16.4439 10.2087C16.7526 10.3018 17.1559 10.3369 17.5751 10.3354C17.9888 10.334 18.3915 10.2975 18.687 10.2619C18.687 10.2619 18.687 10.2619 18.687 10.2619L18.7365 10.656L18.6845 10.2622C18.6849 10.2621 18.6853 10.262 18.6857 10.2619C18.6861 10.2618 18.6864 10.2616 18.6867 10.2614C18.6874 10.261 18.6879 10.2605 18.6884 10.2598C18.6888 10.2592 18.6891 10.2584 18.6892 10.2577C18.6893 10.2569 18.6892 10.2561 18.689 10.2554L18.6868 10.2484L17.4659 6.0633C17.4642 6.05778 17.4608 6.05291 17.4561 6.04945C17.4514 6.04598 17.4457 6.04411 17.4399 6.04411H14.9633Z" fill="white"/>
<path fill-rule="evenodd" clip-rule="evenodd" d="M9.10439 5.25H14.8962L15.2658 9.59326C15.2795 9.74397 15.2495 9.89541 15.1793 10.0302C15.1088 10.1655 15.0007 10.2785 14.8674 10.3562L14.8666 10.3567C14.5771 10.5246 14.0214 10.8288 13.5613 10.9677C12.998 11.1376 12.5046 11.2288 12.0003 11.2288C11.496 11.2288 11.0025 11.1376 10.4393 10.9677C9.97931 10.8289 9.4235 10.5246 9.13459 10.3578L9.13319 10.357C8.99967 10.2792 8.8914 10.1659 8.82092 10.0303C8.75076 9.89539 8.7209 9.74381 8.73475 9.59302L9.10439 5.25ZM9.85052 6.04411L9.54242 9.6641C9.54223 9.66616 9.54261 9.66823 9.54357 9.67007C9.54449 9.67184 9.54589 9.67334 9.54762 9.67439C9.83836 9.84219 10.3197 10.1006 10.6781 10.2087C11.191 10.3635 11.601 10.4347 12.0003 10.4347C12.3995 10.4347 12.8096 10.3635 13.3225 10.2088C13.6813 10.1005 14.1635 9.84148 14.4535 9.67336L14.66 10.015L14.4527 9.67384C14.4545 9.67278 14.456 9.67125 14.4569 9.66941C14.4579 9.66757 14.4583 9.6655 14.4581 9.66345L14.4578 9.66048L14.1501 6.04411H9.85052Z" fill="white"/>
<path fill-rule="evenodd" clip-rule="evenodd" d="M6.56005 5.25C6.56002 5.25 6.56008 5.25 6.56005 5.25L9.91769 5.25L9.53883 9.70532C9.52861 9.83272 9.48757 9.95592 9.41908 10.0647C9.3503 10.174 9.25584 10.2656 9.14356 10.3318L9.14199 10.3328C8.86328 10.4955 8.27526 10.8228 7.79424 10.9677C7.37084 11.095 6.87273 11.1307 6.42148 11.1292C5.96468 11.1276 5.5276 11.0875 5.21322 11.0493L5.21082 11.049C5.09336 11.034 4.98064 10.9942 4.88048 10.9322C4.78032 10.8703 4.69513 10.7877 4.63081 10.6903C4.56649 10.5929 4.5246 10.483 4.50803 10.3681C4.49162 10.2544 4.50043 10.1386 4.53383 10.0285L5.75419 5.84505C5.80426 5.67361 5.91003 5.52269 6.05543 5.41535C6.2008 5.30802 6.37799 5.24998 6.56005 5.25ZM6.55986 6.04411C6.55399 6.04411 6.54828 6.04598 6.54359 6.04945C6.5389 6.05291 6.53549 6.05777 6.53387 6.0633L5.31118 10.2548C5.31096 10.2555 5.31085 10.2563 5.31096 10.257C5.31107 10.2578 5.31135 10.2585 5.31178 10.2592C5.3122 10.2598 5.31277 10.2604 5.31343 10.2608C5.31402 10.2611 5.31468 10.2614 5.31537 10.2615C5.60989 10.2973 6.0116 10.3336 6.42434 10.3351C6.84358 10.3365 7.24694 10.3016 7.55585 10.2087C7.93259 10.0952 8.44453 9.81548 8.72662 9.65072L8.9343 9.99174L8.72504 9.65165C8.72656 9.65075 8.72785 9.64951 8.72878 9.64802C8.72972 9.64654 8.73027 9.64486 8.73041 9.64312L8.73062 9.64044L9.03645 6.04411H6.55986Z" fill="white"/>
</svg>
