<svg width="288" height="197" viewBox="0 0 288 197" fill="none" xmlns="http://www.w3.org/2000/svg">
<path d="M153.468 96.8256L225.717 0.126953H188.649C184.873 0.126812 181.15 1.01162 177.78 2.71015C174.409 4.40868 171.485 6.87348 169.243 9.90611L128.905 64.5543L153.468 96.8256Z" fill="#005469"/>
<path d="M138.99 50.8369L115.247 82.2165C112.008 86.3973 110.239 91.5275 110.216 96.813C110.193 102.098 111.915 107.244 115.118 111.453L128.689 129.43L147.922 154.942C150.166 157.92 153.073 160.337 156.413 162.002C159.753 163.667 163.435 164.533 167.169 164.534H204.626L161.32 107.11C160.83 106.578 160.369 106.017 159.879 105.428L142.822 82.4178C140.096 78.7528 138.21 74.5341 137.299 70.0607C136.388 65.5873 136.473 60.9686 137.549 56.5318L138.99 50.8369Z" fill="#5C9424"/>
<path d="M72.7189 140.316L0.469727 237.001H37.5379C41.314 237.003 45.0378 236.119 48.4087 234.421C51.7797 232.722 54.7033 230.256 56.9436 227.221L97.2821 172.66L72.7189 140.316Z" fill="#005469"/>
<path d="M87.1975 186.308L110.94 154.929C114.179 150.748 115.948 145.618 115.971 140.332C115.994 135.047 114.272 129.901 111.069 125.692L97.4551 107.773L78.2654 82.2609C76.0244 79.2781 73.1185 76.8572 69.7777 75.1898C66.437 73.5224 62.7533 72.6543 59.0182 72.6543H21.561L64.8673 130.021C65.3571 130.567 65.8181 131.128 66.308 131.718L83.3654 154.727C86.0907 158.393 87.9756 162.611 88.8868 167.085C89.7979 171.558 89.7131 176.176 88.6382 180.613L87.1975 186.308Z" fill="#5C9424"/>
<path d="M180.379 39.1743L348.721 39.4331L326.621 9.72176C324.371 6.69497 321.44 4.23824 318.064 2.54962C314.688 0.860987 310.962 -0.0123056 307.186 0.000130992L191.761 0.230229L180.379 39.1743Z" fill="#005469"/>
<path d="M181.46 164.289L429.47 164.548L407.37 134.837C405.127 131.82 402.208 129.369 398.845 127.681C395.483 125.993 391.771 125.114 388.008 125.115L166.693 125.345L181.46 164.289Z" fill="#5C9424"/>
</svg>
