<svg xmlns="http://www.w3.org/2000/svg" width="88" height="24" viewBox="0 0 88 24" fill="none">
    <path d="M15.0844 1.34656V21.6714H13.2307L2.19033 5.58166V21.6714H0V1.34656H1.82642L12.8964 17.4386V1.34656H15.0844Z" fill="#005469"/>
    <path d="M31.2424 9.00693C30.5786 8.25437 29.7604 7.65373 28.8435 7.24593C27.9266 6.83812 26.9326 6.63272 25.9292 6.64373C21.5189 6.64373 18.3165 9.86668 18.3165 14.311C18.3165 18.7554 21.5667 21.9806 26.0497 21.9806C28.8474 21.9806 31.1855 20.7638 32.4638 18.6417L32.648 18.3392L30.7943 17.2429L30.6192 17.5613C29.8095 19.0465 28.1172 19.929 26.0702 19.929C23.1725 19.929 20.9935 18.1231 20.5295 15.3937H33.178V15.0411C33.178 14.9365 33.178 14.8319 33.1916 14.7273C33.2053 14.6226 33.2053 14.4998 33.2053 14.3679C33.2248 12.4016 32.5269 10.4957 31.2424 9.00693ZM25.9292 8.69305C28.5972 8.69305 30.5942 10.5331 30.999 13.3148H20.5114C20.9253 10.5331 23.0565 8.69305 25.9292 8.69305Z" fill="#005469"/>
    <path d="M57.5287 9.02968V17.7865C57.5287 18.603 57.6765 19.117 57.9836 19.4059C58.534 19.9086 59.7645 19.8426 61.3134 19.7084L61.6978 19.6743V21.6235L61.3999 21.669C60.7694 21.7696 60.1323 21.8228 59.4938 21.8282C58.1883 21.8282 57.233 21.5416 56.5506 20.9548C55.7682 20.2725 55.3884 19.2467 55.3884 17.7865V9.02968H52.3133V6.95079H55.3997V3.53906L57.5332 2.91357V6.95079H61.7092V9.02968H57.5287Z" fill="#005469"/>
    <path d="M70.5752 6.64375C69.0593 6.64915 67.5791 7.1036 66.3214 7.94972C65.0637 8.79583 64.0849 9.99567 63.5087 11.3977C62.9324 12.7997 62.7846 14.3411 63.0837 15.8271C63.3829 17.3131 64.1158 18.6771 65.1897 19.7469C66.2636 20.8167 67.6304 21.5443 69.1176 21.8378C70.6047 22.1312 72.1455 21.9774 73.5453 21.3958C74.9451 20.8142 76.1412 19.8308 76.9824 18.5698C77.8237 17.3089 78.2725 15.8269 78.272 14.3111C78.279 13.2997 78.0845 12.2971 77.6998 11.3618C77.3151 10.4264 76.748 9.5771 76.0315 8.86334C75.3149 8.14958 74.4634 7.58569 73.5266 7.2046C72.5898 6.82351 71.5865 6.63285 70.5752 6.64375ZM70.5752 19.929C69.8369 19.9355 69.1048 19.7943 68.4218 19.514C67.7388 19.2336 67.1187 18.8195 66.5979 18.2962C66.0771 17.7729 65.6661 17.1508 65.3891 16.4664C65.112 15.7821 64.9744 15.0493 64.9845 14.3111C64.9541 13.5603 65.0758 12.8112 65.3422 12.1087C65.6085 11.4061 66.0141 10.7646 66.5346 10.2227C67.055 9.68082 67.6796 9.24966 68.3708 8.95514C69.062 8.66062 69.8056 8.5088 70.557 8.5088C71.3083 8.5088 72.0519 8.66062 72.7431 8.95514C73.4343 9.24966 74.0589 9.68082 74.5794 10.2227C75.0998 10.7646 75.5054 11.4061 75.7718 12.1087C76.0381 12.8112 76.1598 13.5603 76.1294 14.3111C76.1416 15.0468 76.0067 15.7776 75.7326 16.4605C75.4586 17.1434 75.0509 17.7647 74.5336 18.288C74.0163 18.8112 73.3996 19.2259 72.7199 19.5077C72.0401 19.7895 71.311 19.9328 70.5752 19.929Z" fill="#005469"/>
    <path d="M88 6.75525V8.80229H87.6475C84.4632 8.80229 83.3259 11.2405 83.3259 13.5241V21.6736H81.2175V6.95085H83.3259V8.73178C84.2994 7.43305 85.7756 6.75525 87.6475 6.75525H88Z" fill="#005469"/>
    <path d="M47.4868 9.64838L54.6833 9.73691e-08H50.9895C50.6137 -0.000107009 50.2431 0.0881497 49.9076 0.257647C49.5722 0.427143 49.2813 0.673132 49.0585 0.975756L45.0349 6.42088L47.4868 9.64838Z" fill="#005469"/>
    <path d="M46.0448 5.05847L43.6702 8.18817C43.3487 8.60664 43.1744 9.11956 43.1744 9.64725C43.1744 10.1749 43.3487 10.6879 43.6702 11.1063L45.0349 12.8941L46.95 15.4392C47.1734 15.7367 47.463 15.978 47.7957 16.1442C48.1285 16.3104 48.4954 16.3969 48.8674 16.3968H52.6021L48.2806 10.6719C48.2307 10.6189 48.1843 10.5627 48.1418 10.5036L46.4428 8.21546C46.1707 7.84897 45.9826 7.42711 45.8918 6.97979C45.801 6.53248 45.8098 6.07066 45.9174 5.62709L46.0448 5.05847Z" fill="#5C9424"/>
    <path d="M39.4442 13.9882L32.2455 23.6365H35.9369C36.3131 23.6366 36.684 23.5484 37.0198 23.3789C37.3556 23.2094 37.6469 22.9635 37.8703 22.6608L41.8847 17.2157L39.4442 13.9882Z" fill="#005469"/>
    <path d="M40.8862 18.578L43.2494 15.446C43.5721 15.0288 43.7483 14.5168 43.7508 13.9893C43.7533 13.4618 43.5819 12.9482 43.2631 12.5279L41.8984 10.7401L39.9923 8.18815C39.7683 7.89081 39.4784 7.64955 39.1452 7.48338C38.8121 7.31721 38.4449 7.23068 38.0727 7.23059H34.3448L38.6663 12.9646C38.7156 13.0181 38.7619 13.0743 38.8051 13.1329L40.5041 15.421C40.7756 15.7878 40.9634 16.2097 41.0541 16.6569C41.1449 17.1041 41.1365 17.5658 41.0295 18.0094L40.8862 18.578Z" fill="#5C9424"/>
</svg>
