<svg xmlns="http://www.w3.org/2000/svg" width="112" height="30" viewBox="0 0 112 30" fill="none">
    <path d="M19.1455 1.709V27.5058H16.7927L2.78002 7.08429V27.5058H0V1.709H2.31813L16.3684 22.1334V1.709H19.1455Z" fill="white"/>
    <path d="M39.6536 11.4319C38.8111 10.4767 37.7726 9.71437 36.6088 9.19677C35.4451 8.67917 34.1835 8.41848 32.9099 8.43245C27.3123 8.43245 23.2477 12.5231 23.2477 18.164C23.2477 23.8049 27.373 27.8984 33.0629 27.8984C36.6137 27.8984 39.5814 26.3539 41.2038 23.6605L41.4376 23.2766L39.0849 21.8851L38.8626 22.2893C37.8349 24.1744 35.6871 25.2945 33.0889 25.2945C29.4111 25.2945 26.6455 23.0023 26.0566 19.5381H42.1103V19.0906C42.1103 18.9579 42.1103 18.8251 42.1276 18.6923C42.1449 18.5595 42.1449 18.4036 42.1449 18.2361C42.1697 15.7405 41.284 13.3215 39.6536 11.4319ZM32.9099 11.0335C36.2962 11.0335 38.8308 13.3689 39.3447 16.8995H26.0335C26.5589 13.3689 29.2638 11.0335 32.9099 11.0335Z" fill="white"/>
    <path d="M73.0168 11.4607V22.5751C73.0168 23.6114 73.2044 24.2639 73.5941 24.6305C74.2927 25.2685 75.8545 25.1848 77.8205 25.0144L78.3083 24.9711V27.4452L77.9302 27.5029C77.1299 27.6305 76.3213 27.6981 75.511 27.705C73.8539 27.705 72.6415 27.3412 71.7754 26.5964C70.7824 25.7304 70.3003 24.4284 70.3003 22.5751V11.4607H66.3972V8.82218H70.3147V4.49192L73.0225 3.69804V8.82218H78.3228V11.4607H73.0168Z" fill="white"/>
    <path d="M89.5757 8.43245C87.6517 8.43929 85.773 9.01609 84.1767 10.09C82.5804 11.1639 81.3381 12.6868 80.6067 14.4663C79.8753 16.2458 79.6876 18.2021 80.0674 20.0882C80.4471 21.9742 81.3773 23.7055 82.7403 25.0633C84.1033 26.4211 85.8382 27.3446 87.7257 27.717C89.6132 28.0895 91.5688 27.8943 93.3455 27.1561C95.1221 26.4179 96.6402 25.1697 97.7079 23.5693C98.7757 21.9689 99.3453 20.0879 99.3447 18.164C99.3536 16.8804 99.1067 15.6078 98.6185 14.4207C98.1302 13.2335 97.4103 12.1555 96.5009 11.2496C95.5915 10.3437 94.5107 9.62798 93.3217 9.14429C92.1327 8.6606 90.8592 8.41861 89.5757 8.43245ZM89.5757 25.2945C88.6386 25.3026 87.7094 25.1235 86.8425 24.7676C85.9757 24.4117 85.1886 23.8862 84.5276 23.222C83.8666 22.5578 83.345 21.7682 82.9933 20.8996C82.6417 20.031 82.4671 19.101 82.4798 18.164C82.4413 17.2111 82.5957 16.2603 82.9338 15.3686C83.2719 14.4769 83.7867 13.6628 84.4472 12.975C85.1078 12.2872 85.9005 11.7399 86.7778 11.3661C87.6551 10.9923 88.5989 10.7996 89.5526 10.7996C90.5062 10.7996 91.45 10.9923 92.3273 11.3661C93.2046 11.7399 93.9973 12.2872 94.6579 12.975C95.3185 13.6628 95.8332 14.4769 96.1713 15.3686C96.5094 16.2603 96.6638 17.2111 96.6253 18.164C96.6407 19.0978 96.4695 20.0253 96.1216 20.892C95.7738 21.7588 95.2564 22.5474 94.5998 23.2115C93.9432 23.8757 93.1606 24.402 92.2978 24.7597C91.4351 25.1174 90.5096 25.2992 89.5757 25.2945Z" fill="white"/>
    <path d="M111.692 8.5739V11.1721H111.244C107.203 11.1721 105.759 14.2667 105.759 17.1651V27.5087H103.083V8.82217H105.759V11.0826C106.995 9.43418 108.868 8.5739 111.244 8.5739H111.692Z" fill="white"/>
    <path d="M60.2714 12.246L69.4053 1.23583e-07H64.7171C64.2401 -0.000135818 63.7697 0.111882 63.344 0.327011C62.9182 0.542141 62.549 0.854355 62.2662 1.23845L57.1594 8.14954L60.2714 12.246Z" fill="white"/>
    <path d="M58.4411 6.42032L55.4273 10.3926C55.0192 10.9237 54.798 11.5747 54.798 12.2445C54.798 12.9143 55.0192 13.5653 55.4273 14.0964L57.1594 16.3655L59.5901 19.5958C59.8736 19.9733 60.2411 20.2797 60.6635 20.4906C61.0859 20.7016 61.5516 20.8113 62.0237 20.8112H66.7639L61.2789 13.545C61.2155 13.4778 61.1567 13.4064 61.1028 13.3314L58.9463 10.4272C58.601 9.96209 58.3623 9.42665 58.247 8.8589C58.1318 8.29116 58.1428 7.70501 58.2795 7.14203L58.4411 6.42032Z" fill="#5C9424"/>
    <path d="M50.0635 17.754L40.9267 30H45.612C46.0894 30.0001 46.5602 29.8881 46.9864 29.673C47.4126 29.4579 47.7824 29.1457 48.0658 28.7615L53.1611 21.8505L50.0635 17.754Z" fill="white"/>
    <path d="M51.8938 23.5797L54.8932 19.6045C55.3028 19.0749 55.5264 18.425 55.5296 17.7555C55.5327 17.086 55.3151 16.4341 54.9105 15.9007L53.1784 13.6316L50.7592 10.3926C50.4749 10.0152 50.1069 9.709 49.6841 9.4981C49.2612 9.28719 48.7952 9.17736 48.3227 9.17725H43.5912L49.0762 16.455C49.1387 16.5229 49.1975 16.5943 49.2523 16.6686L51.4088 19.5727C51.7534 20.0383 51.9917 20.5737 52.1069 21.1413C52.2221 21.7089 52.2114 22.2949 52.0756 22.858L51.8938 23.5797Z" fill="#5C9424"/>
</svg>
